HIERARCHY
ROOT Hips
{
 OFFSET 0.000000 0.000000 0.000000
 CHANNELS 6 Xposition Yposition Zposition Yrotation Xrotation Zrotation
 JOINT Chest
 {
  OFFSET 0.000000 9.585900 0.002600
  CHANNELS 3 Yrotation Xrotation Zrotation
  JOINT Chest2
  {
   OFFSET 0.000000 9.601200 -0.005300
   CHANNELS 3 Yrotation Xrotation Zrotation
   JOINT Chest3
   {
    OFFSET 0.000000 9.561800 0.000000
    CHANNELS 3 Yrotation Xrotation Zrotation
    JOINT Chest4
    {
     OFFSET 0.000000 9.552100 0.000000
     CHANNELS 3 Yrotation Xrotation Zrotation
     JOINT Neck
     {
      OFFSET 0.000000 14.453000 0.000000
      CHANNELS 3 Yrotation Xrotation Zrotation
      JOINT Head
      {
       OFFSET 0.000000 8.936500 -0.011300
       CHANNELS 3 Yrotation Xrotation Zrotation
       End Site
       {
        OFFSET 0.000000 17.073600 -0.006000
       }
      }
     }
     JOINT RightCollar
     {
      OFFSET -2.921100 9.558500 0.000000
      CHANNELS 3 Yrotation Xrotation Zrotation
      JOINT RightShoulder
      {
       OFFSET -13.519700 0.000000 0.000000
       CHANNELS 3 Yrotation Xrotation Zrotation
       JOINT RightElbow
       {
        OFFSET 0.000000 -29.696600 0.000000
        CHANNELS 3 Yrotation Xrotation Zrotation
        JOINT RightWrist
        {
         OFFSET 0.000000 -24.004700 0.000000
         CHANNELS 3 Yrotation Xrotation Zrotation
         End Site
         {
          OFFSET 0.000000 -17.728500 0.000000
         }
        }
       }
      }
     }
     JOINT LeftCollar
     {
      OFFSET 2.921100 9.558500 0.000000
      CHANNELS 3 Yrotation Xrotation Zrotation
      JOINT LeftShoulder
      {
       OFFSET 13.519700 0.000000 0.000000
       CHANNELS 3 Yrotation Xrotation Zrotation
       JOINT LeftElbow
       {
        OFFSET 0.000000 -29.696600 0.000000
        CHANNELS 3 Yrotation Xrotation Zrotation
        JOINT LeftWrist
        {
         OFFSET 0.000000 -24.004700 0.000000
         CHANNELS 3 Yrotation Xrotation Zrotation
         End Site
         {
          OFFSET 0.000000 -17.728500 0.000000
         }
        }
       }
      }
     }
    }
   }
  }
 }
 JOINT RightHip
 {
  OFFSET -7.771700 -0.012900 -0.001300
  CHANNELS 3 Yrotation Xrotation Zrotation
  JOINT RightKnee
  {
   OFFSET 0.000000 -40.869800 0.001200
   CHANNELS 3 Yrotation Xrotation Zrotation
   JOINT RightAnkle
   {
    OFFSET 0.000000 -39.717900 0.002100
    CHANNELS 3 Yrotation Xrotation Zrotation
    JOINT RightToe
    {
     OFFSET 0.000000 -4.965400 11.033500
     CHANNELS 3 Yrotation Xrotation Zrotation
     End Site
     {
      OFFSET 0.000000 -1.423100 5.872300
     }
    }
   }
  }
 }
 JOINT LeftHip
 {
  OFFSET 7.771700 -0.012900 -0.001300
  CHANNELS 3 Yrotation Xrotation Zrotation
  JOINT LeftKnee
  {
   OFFSET 0.000000 -40.869800 0.001200
   CHANNELS 3 Yrotation Xrotation Zrotation
   JOINT LeftAnkle
   {
    OFFSET 0.000000 -39.717900 0.002100
    CHANNELS 3 Yrotation Xrotation Zrotation
    JOINT LeftToe
    {
     OFFSET 0.000000 -4.965400 11.033500
     CHANNELS 3 Yrotation Xrotation Zrotation
     End Site
     {
      OFFSET 0.000000 -1.423100 5.872300
     }
    }
   }
  }
 }
}
MOTION
Frames: 8
Frame Time: 0.008333
0.000000 85.388000 0.000000 0.000000 -5.767877 0.000000 0.000000 11.653817 0.000000 0.000000 -5.885947 0.000000 0.000000 -0.000000 0.000000 0.000000 -0.000000 0.000000 0.000000 12.528835 0.000000 0.000000 0.711642 0.000000 0.000000 -0.000000 0.000000 0.000000 0.000000 -90.000000 0.000000 -2.309062 0.000000 0.000000 2.309062 0.000000 0.000000 -0.000000 0.000000 0.000000 -0.000000 90.000000 0.000000 -2.309062 0.000000 0.000000 2.309062 0.000000 0.000000 8.520406 0.000000 0.000000 1.905762 0.000000 -0.000000 -4.658285 0.000000 0.000000 -0.000000 0.000000 0.000000 8.520406 0.000000 0.000000 1.905762 0.000000 -0.000000 -4.658285 0.000000 0.000000 -0.000000 0.000000
-53.972457 56.524825 -20.047846 -176.660618 -16.234648 -0.451550 -0.055341 15.252315 -0.859102 -0.001252 1.424162 -0.010301 0.015319 2.393829 -0.021765 0.076318 13.632849 -0.117640 1.289995 15.512998 5.396996 0.135192 -9.326630 5.461592 -2.453783 0.218950 1.763950 0.481573 -4.036442 -6.073064 -82.557334 -57.733209 114.369277 -12.998800 4.841225 3.522471 -6.196665 -2.293486 2.162190 1.475884 -10.560158 7.948548 77.497275 -62.485595 -118.202813 3.530517 -18.300203 8.475204 -4.768501 -58.745520 11.364793 -33.011719 83.616839 -38.124614 -9.826543 -16.118089 14.496624 0.261756 -0.524459 0.153222 18.299293 -52.673127 -21.204566 64.565495 71.598967 65.690420 -7.825659 -14.689064 1.676124 0.364510 0.820403 0.160449
-53.973777 56.524299 -20.048456 -176.664353 -16.233864 -0.450511 -0.062839 15.251378 -0.858894 -0.001214 1.429066 -0.011646 0.013888 2.395099 -0.021777 0.067890 13.636183 -0.118370 1.266453 15.500560 5.400420 0.022262 -9.345270 5.511466 -2.450040 0.219304 1.760738 0.476667 -4.033036 -6.070365 -82.599610 -57.728353 114.412863 -12.993982 4.856207 3.528852 -6.191012 -2.291472 2.152435 1.447193 -10.523081 7.952702 77.483367 -62.473003 -118.224566 3.526401 -18.317845 8.469208 -4.763459 -58.746260 11.365016 -32.986565 83.616491 -38.102433 -9.817277 -16.117246 14.490807 0.298144 -0.516489 0.152096 18.298075 -52.676592 -21.205661 64.583684 71.596242 65.706010 -7.819043 -14.687944 1.677969 0.358708 0.818029 0.157235
-53.975887 56.523819 -20.049612 -176.668799 -16.235565 -0.446055 -0.070042 15.257198 -0.863384 0.003969 1.428292 -0.012744 0.009249 2.401538 -0.021787 0.067511 13.632495 -0.119030 1.235142 15.492382 5.407303 -0.089576 -9.367253 5.561143 -2.454042 0.222991 1.761461 0.473177 -4.035626 -6.066763 -82.635446 -57.727826 114.437984 -12.998434 4.855806 3.528147 -6.201074 -2.279993 2.135925 1.418576 -10.499583 7.971672 77.468055 -62.456701 -118.240435 3.523839 -18.326163 8.465260 -4.749316 -58.745179 11.355823 -32.981183 83.616592 -38.096790 -9.815565 -16.118229 14.488134 0.290533 -0.514175 0.151496 18.302146 -52.672991 -21.208997 64.591509 71.593054 65.712248 -7.820793 -14.692470 1.678142 0.359277 0.821045 0.158197
-53.977921 56.523253 -20.050650 -176.672602 -16.235477 -0.443232 -0.075228 15.264924 -0.866918 0.007420 1.424818 -0.012979 0.007674 2.408829 -0.022601 0.063236 13.628240 -0.118649 1.163126 15.484032 5.423426 -0.154618 -9.393103 5.590020 -2.457101 0.226406 1.760858 0.471083 -4.036993 -6.057522 -82.674114 -57.733306 114.459667 -12.996656 4.851057 3.526263 -6.203129 -2.277999 2.124630 1.377739 -10.476035 7.988049 77.449973 -62.442259 -118.248797 3.523985 -18.323977 8.460515 -4.726328 -58.747015 11.345950 -33.039752 83.610211 -38.152394 -9.820878 -16.114464 14.490303 0.292796 -0.513798 0.154226 18.296753 -52.671380 -21.207486 64.600953 71.588183 65.714845 -7.813114 -14.703286 1.681853 0.351849 0.829991 0.154517
-53.979471 56.522650 -20.051502 -176.673866 -16.233288 -0.444759 -0.077708 15.271583 -0.867120 0.007103 1.425965 -0.012891 0.008981 2.411085 -0.022726 0.058227 13.632543 -0.117085 1.097123 15.461144 5.438256 -0.224611 -9.417944 5.621449 -2.458823 0.221655 1.760520 0.462494 -4.039712 -6.051340 -82.722172 -57.737397 114.462146 -13.002935 4.862456 3.543199 -6.201800 -2.289759 2.118363 1.329966 -10.454672 8.002041 77.423990 -62.433616 -118.247806 3.527308 -18.321246 8.453027 -4.724587 -58.748776 11.350008 -33.061631 83.605997 -38.175278 -9.819699 -16.112089 14.490152 0.297447 -0.512328 0.152117 18.294706 -52.673660 -21.205146 64.606192 71.587134 65.718735 -7.814459 -14.708420 1.684608 0.351948 0.833918 0.153838
-53.981495 56.522088 -20.052150 -176.674604 -16.229603 -0.444236 -0.080230 15.278347 -0.869952 0.006997 1.437669 -0.013358 0.011203 2.395023 -0.021156 0.053283 13.642430 -0.116866 1.032652 15.437005 5.455044 -0.295784 -9.439465 5.650777 -2.457212 0.216414 1.760907 0.439353 -4.036857 -6.034126 -82.729827 -57.752375 114.467100 -12.999415 4.856496 3.539697 -6.203392 -2.300384 2.113093 1.286370 -10.439627 8.016913 77.382124 -62.428427 -118.233902 3.531198 -18.328861 8.444799 -4.723480 -58.752525 11.352122 -33.081065 83.602431 -38.194886 -9.827281 -16.107961 14.488105 0.320908 -0.506012 0.147897 18.294116 -52.677025 -21.206374 64.609985 71.585019 65.721557 -7.819285 -14.711425 1.686499 0.357999 0.836741 0.155245
-53.982946 56.521484 -20.052057 -176.672780 -16.221011 -0.448183 -0.080678 15.280110 -0.866435 0.006403 1.432752 -0.013557 0.011304 2.395597 -0.021140 0.051332 13.658009 -0.120362 0.918894 15.402669 5.482489 -0.315721 -9.448762 5.658201 -2.456733 0.202631 1.764867 0.423953 -4.042047 -6.024913 -82.721731 -57.754834 114.443255 -13.002694 4.842476 3.528533 -6.214740 -2.309847 2.105625 1.250435 -10.437564 8.038877 77.323349 -62.423071 -118.206208 3.506209 -18.360493 8.473370 -4.731116 -58.763149 11.361215 -33.028216 83.607992 -38.152142 -9.802731 -16.094423 14.478844 0.301179 -0.519121 0.153015 18.290784 -52.685880 -21.206414 64.608015 71.584171 65.719295 -7.815616 -14.714890 1.685623 0.357841 0.840796 0.156734
